<svg width="264" height="255" viewBox="0 0 264 255" fill="none" xmlns="http://www.w3.org/2000/svg">
<path d="M250.683 12.8072C241.802 4.2652 231.114 0 218.609 0H67.3036C54.7988 0 44.1116 4.2652 35.2297 12.8072C26.3479 21.3493 21.9131 31.6277 21.9131 43.6542V189.172C21.9131 201.198 26.3479 211.477 35.2297 220.019C44.1116 228.561 54.7988 232.826 67.3036 232.826H102.613C104.915 232.826 106.648 232.745 107.811 232.593C109.164 232.332 110.386 231.638 111.276 230.624C112.428 229.458 113.009 227.768 113.009 225.554L112.924 215.241C112.876 208.668 112.852 203.471 112.852 199.625L109.217 200.231C106.914 200.639 104.006 200.814 100.48 200.767C96.8049 200.702 93.1414 200.347 89.5263 199.707C85.678 199.023 82.0553 197.465 78.9602 195.162C75.7189 192.804 73.3012 189.552 72.0293 185.839L70.4541 182.343C69.1264 179.585 67.4584 176.991 65.4861 174.617C63.2323 171.785 60.9422 169.874 58.6278 168.86L57.5373 168.102C56.7768 167.579 56.0852 166.968 55.4774 166.284C54.8969 165.65 54.4189 164.935 54.0597 164.163C53.7446 163.453 54.0112 162.87 54.8473 162.415C55.6955 161.949 57.2101 161.728 59.4275 161.728L62.578 162.194C64.6742 162.59 67.2794 163.802 70.3692 165.818C73.4962 167.869 76.1082 170.564 78.0151 173.708C80.4385 177.845 83.3466 181.003 86.7636 183.182C90.1807 185.35 93.6219 186.445 97.0874 186.445C100.553 186.445 103.546 186.189 106.078 185.688C108.527 185.2 110.907 184.434 113.167 183.403C114.112 176.644 116.681 171.424 120.885 167.788C115.437 167.274 110.038 166.362 104.733 165.061C99.5568 163.693 94.5784 161.708 89.9141 159.152C85.0339 156.597 80.7233 153.144 77.2275 148.991C73.8711 144.947 71.1084 139.644 68.9515 133.083C66.8068 126.511 65.7284 118.924 65.7284 110.336C65.7284 98.1112 69.8724 87.7045 78.1726 79.1042C74.2952 69.9212 74.6587 59.6079 79.2753 48.199C82.3288 47.2784 86.8485 47.966 92.8343 50.2384C98.8201 52.5109 103.207 54.457 105.993 56.0652C108.78 57.6967 111.01 59.0601 112.694 60.1672C122.545 57.5307 132.725 56.2053 142.95 56.2283C153.359 56.2283 163.44 57.5452 173.219 60.1672L179.205 56.5313C183.809 53.8726 188.666 51.6406 193.709 49.8655C199.283 47.8378 203.524 47.2901 206.48 48.199C211.206 59.6195 211.618 69.9212 207.728 79.1159C216.029 87.7045 220.185 98.1112 220.185 110.347C220.185 118.936 219.106 126.546 216.949 133.153C214.805 139.773 212.018 145.075 208.601 149.072C205.043 153.173 200.715 156.592 195.842 159.152C190.752 161.879 185.809 163.849 181.022 165.061C175.718 166.367 170.319 167.282 164.87 167.799C170.323 172.344 173.061 179.511 173.061 189.312V225.554C173.061 227.267 173.316 228.654 173.849 229.715C174.094 230.225 174.443 230.684 174.876 231.062C175.309 231.441 175.817 231.731 176.369 231.917C177.533 232.313 178.55 232.57 179.447 232.663C180.344 232.779 181.628 232.814 183.3 232.814H218.609C231.114 232.814 241.802 228.549 250.683 220.007C259.553 211.477 264 201.187 264 189.16V43.6542C264 31.6277 259.565 21.3493 250.683 12.8072Z" fill="#00FFB3"/>
</svg>
